<mxfile host="app.diagrams.net" modified="2024-04-28T15:50:54.061Z" agent="Mozilla/5.0 (Windows NT 10.0; Win64; x64) AppleWebKit/537.36 (KHTML, like Gecko) Chrome/121.0.0.0 Safari/537.36 OPR/107.0.0.0" etag="XWi0H5ei5F3PRsJEcsVA" version="24.2.3" type="google">
  <diagram id="C5RBs43oDa-KdzZeNtuy" name="Page-1">
    <mxGraphModel grid="1" page="1" gridSize="10" guides="1" tooltips="1" connect="1" arrows="1" fold="1" pageScale="1" pageWidth="827" pageHeight="1169" math="0" shadow="0">
      <root>
        <mxCell id="WIyWlLk6GJQsqaUBKTNV-0" />
        <mxCell id="WIyWlLk6GJQsqaUBKTNV-1" parent="WIyWlLk6GJQsqaUBKTNV-0" />
        <mxCell id="RXdhkoTcRTNO48JzaXSp-1" style="edgeStyle=orthogonalEdgeStyle;rounded=0;orthogonalLoop=1;jettySize=auto;html=1;exitX=0.5;exitY=0.5;exitDx=0;exitDy=0;exitPerimeter=0;entryX=0;entryY=0.5;entryDx=0;entryDy=0;" edge="1" parent="WIyWlLk6GJQsqaUBKTNV-1" source="nBEKUOuN9eQIXuwrn9ih-1" target="nBEKUOuN9eQIXuwrn9ih-5">
          <mxGeometry relative="1" as="geometry" />
        </mxCell>
        <mxCell id="RXdhkoTcRTNO48JzaXSp-2" style="edgeStyle=orthogonalEdgeStyle;rounded=0;orthogonalLoop=1;jettySize=auto;html=1;exitX=0.5;exitY=0.5;exitDx=0;exitDy=0;exitPerimeter=0;" edge="1" parent="WIyWlLk6GJQsqaUBKTNV-1" source="nBEKUOuN9eQIXuwrn9ih-1" target="nBEKUOuN9eQIXuwrn9ih-6">
          <mxGeometry relative="1" as="geometry" />
        </mxCell>
        <mxCell id="RXdhkoTcRTNO48JzaXSp-3" style="edgeStyle=orthogonalEdgeStyle;rounded=0;orthogonalLoop=1;jettySize=auto;html=1;exitX=0.5;exitY=0.5;exitDx=0;exitDy=0;exitPerimeter=0;entryX=0;entryY=0.5;entryDx=0;entryDy=0;" edge="1" parent="WIyWlLk6GJQsqaUBKTNV-1" source="nBEKUOuN9eQIXuwrn9ih-1" target="nBEKUOuN9eQIXuwrn9ih-7">
          <mxGeometry relative="1" as="geometry" />
        </mxCell>
        <mxCell id="RXdhkoTcRTNO48JzaXSp-5" style="edgeStyle=orthogonalEdgeStyle;rounded=0;orthogonalLoop=1;jettySize=auto;html=1;exitX=0.5;exitY=0.5;exitDx=0;exitDy=0;exitPerimeter=0;entryX=0;entryY=0.5;entryDx=0;entryDy=0;" edge="1" parent="WIyWlLk6GJQsqaUBKTNV-1" source="nBEKUOuN9eQIXuwrn9ih-1" target="RXdhkoTcRTNO48JzaXSp-4">
          <mxGeometry relative="1" as="geometry" />
        </mxCell>
        <mxCell id="nBEKUOuN9eQIXuwrn9ih-1" value="Administrador" style="shape=umlActor;verticalLabelPosition=bottom;verticalAlign=top;html=1;outlineConnect=0;" vertex="1" parent="WIyWlLk6GJQsqaUBKTNV-1">
          <mxGeometry x="89" y="230" width="30" height="60" as="geometry" />
        </mxCell>
        <mxCell id="RXdhkoTcRTNO48JzaXSp-9" style="edgeStyle=orthogonalEdgeStyle;rounded=0;orthogonalLoop=1;jettySize=auto;html=1;exitX=1;exitY=0.5;exitDx=0;exitDy=0;entryX=0;entryY=0.5;entryDx=0;entryDy=0;" edge="1" parent="WIyWlLk6GJQsqaUBKTNV-1" source="nBEKUOuN9eQIXuwrn9ih-5" target="RXdhkoTcRTNO48JzaXSp-6">
          <mxGeometry relative="1" as="geometry" />
        </mxCell>
        <mxCell id="nBEKUOuN9eQIXuwrn9ih-5" value="Cadastrar fornecedor" style="ellipse;whiteSpace=wrap;html=1;" vertex="1" parent="WIyWlLk6GJQsqaUBKTNV-1">
          <mxGeometry x="250" y="90" width="120" height="60" as="geometry" />
        </mxCell>
        <mxCell id="RXdhkoTcRTNO48JzaXSp-8" style="edgeStyle=orthogonalEdgeStyle;rounded=0;orthogonalLoop=1;jettySize=auto;html=1;exitX=1;exitY=0.5;exitDx=0;exitDy=0;entryX=0;entryY=0.5;entryDx=0;entryDy=0;" edge="1" parent="WIyWlLk6GJQsqaUBKTNV-1" source="nBEKUOuN9eQIXuwrn9ih-6" target="RXdhkoTcRTNO48JzaXSp-6">
          <mxGeometry relative="1" as="geometry" />
        </mxCell>
        <mxCell id="nBEKUOuN9eQIXuwrn9ih-6" value="Editar Fornecedor" style="ellipse;whiteSpace=wrap;html=1;" vertex="1" parent="WIyWlLk6GJQsqaUBKTNV-1">
          <mxGeometry x="250" y="180" width="120" height="60" as="geometry" />
        </mxCell>
        <mxCell id="RXdhkoTcRTNO48JzaXSp-7" style="edgeStyle=orthogonalEdgeStyle;rounded=0;orthogonalLoop=1;jettySize=auto;html=1;exitX=1;exitY=0.5;exitDx=0;exitDy=0;entryX=0;entryY=0.5;entryDx=0;entryDy=0;" edge="1" parent="WIyWlLk6GJQsqaUBKTNV-1" source="nBEKUOuN9eQIXuwrn9ih-7" target="RXdhkoTcRTNO48JzaXSp-6">
          <mxGeometry relative="1" as="geometry" />
        </mxCell>
        <mxCell id="nBEKUOuN9eQIXuwrn9ih-7" value="Buscar Fornecedor" style="ellipse;whiteSpace=wrap;html=1;" vertex="1" parent="WIyWlLk6GJQsqaUBKTNV-1">
          <mxGeometry x="250" y="270" width="120" height="60" as="geometry" />
        </mxCell>
        <mxCell id="RXdhkoTcRTNO48JzaXSp-10" style="edgeStyle=orthogonalEdgeStyle;rounded=0;orthogonalLoop=1;jettySize=auto;html=1;exitX=1;exitY=0.5;exitDx=0;exitDy=0;entryX=0;entryY=0.5;entryDx=0;entryDy=0;" edge="1" parent="WIyWlLk6GJQsqaUBKTNV-1" source="RXdhkoTcRTNO48JzaXSp-4" target="RXdhkoTcRTNO48JzaXSp-6">
          <mxGeometry relative="1" as="geometry" />
        </mxCell>
        <mxCell id="RXdhkoTcRTNO48JzaXSp-4" value="Bloqueio de Fornecedor" style="ellipse;whiteSpace=wrap;html=1;" vertex="1" parent="WIyWlLk6GJQsqaUBKTNV-1">
          <mxGeometry x="250" y="360" width="120" height="60" as="geometry" />
        </mxCell>
        <mxCell id="RXdhkoTcRTNO48JzaXSp-6" value="Validação&amp;nbsp;&lt;span style=&quot;background-color: initial;&quot;&gt;dados&lt;/span&gt;" style="ellipse;whiteSpace=wrap;html=1;" vertex="1" parent="WIyWlLk6GJQsqaUBKTNV-1">
          <mxGeometry x="499" y="230" width="120" height="60" as="geometry" />
        </mxCell>
        <mxCell id="RXdhkoTcRTNO48JzaXSp-11" value="Banco de dados&lt;div&gt;&lt;br&gt;&lt;/div&gt;" style="shape=umlActor;verticalLabelPosition=bottom;verticalAlign=top;html=1;outlineConnect=0;" vertex="1" parent="WIyWlLk6GJQsqaUBKTNV-1">
          <mxGeometry x="709" y="230" width="30" height="60" as="geometry" />
        </mxCell>
        <mxCell id="RXdhkoTcRTNO48JzaXSp-17" style="edgeStyle=orthogonalEdgeStyle;rounded=0;orthogonalLoop=1;jettySize=auto;html=1;exitX=1;exitY=0.5;exitDx=0;exitDy=0;entryX=0.5;entryY=0.5;entryDx=0;entryDy=0;entryPerimeter=0;" edge="1" parent="WIyWlLk6GJQsqaUBKTNV-1" source="RXdhkoTcRTNO48JzaXSp-6" target="RXdhkoTcRTNO48JzaXSp-11">
          <mxGeometry relative="1" as="geometry" />
        </mxCell>
      </root>
    </mxGraphModel>
  </diagram>
</mxfile>
